<?xml version="1.0" encoding="UTF-8"?>
<svg xmlns="http://www.w3.org/2000/svg" width="490" height="370" viewBox="0 0 490 370">
<rect x="0" y="0" width="490" height="370" rx="12" fill="#0d1117" stroke="#30363d"/>
<circle cx="20" cy="20" r="5" fill="#ff5f56"/>
<circle cx="38" cy="20" r="5" fill="#ffbd2e"/>
<circle cx="56" cy="20" r="5" fill="#27c93f"/>
<text x="78" y="25" font-family="monospace" font-size="12" fill="#8b949e">haseebarshad17@github</text>
<line x1="20" y1="42" x2="470" y2="42" stroke="#30363d"/>
<text x="22" y="64" font-family="monospace" font-size="8" letter-spacing="1.6" fill="#39d353">SENIOR SOFTWARE ENGINEER</text>
<text x="22" y="83" font-family="monospace" font-size="10" fill="#c9d1d9">Building scalable web &amp; mobile systems</text>
<g opacity="1"><rect x="22" y="94" width="214" height="47" rx="7" fill="#161b22" stroke="#30363d"/><text x="34" y="107" font-family="monospace" font-size="6.5" letter-spacing="1" fill="#39d353">ROLE</text><text x="34" y="125" font-family="monospace" font-size="14" font-weight="bold" fill="#c9d1d9">Senior Developer</text><text x="34" y="136" font-family="monospace" font-size="6.5" fill="#8b949e">software engineering</text></g>
<g opacity="1"><rect x="254" y="94" width="214" height="47" rx="7" fill="#161b22" stroke="#30363d"/><text x="266" y="107" font-family="monospace" font-size="6.5" letter-spacing="1" fill="#39d353">COMPANY</text><text x="266" y="125" font-family="monospace" font-size="14" font-weight="bold" fill="#c9d1d9">Spadatsoft</text><text x="266" y="136" font-family="monospace" font-size="6.5" fill="#8b949e">professional role</text></g>
<g opacity="1"><rect x="22" y="147" width="214" height="47" rx="7" fill="#161b22" stroke="#30363d"/><text x="34" y="160" font-family="monospace" font-size="6.5" letter-spacing="1" fill="#39d353">PRIMARY</text><text x="34" y="178" font-family="monospace" font-size="14" font-weight="bold" fill="#c9d1d9">TypeScript</text><text x="34" y="189" font-family="monospace" font-size="6.5" fill="#8b949e">JavaScript / ES6</text></g>
<g opacity="1"><rect x="254" y="147" width="214" height="47" rx="7" fill="#161b22" stroke="#30363d"/><text x="266" y="160" font-family="monospace" font-size="6.5" letter-spacing="1" fill="#39d353">FRONTEND</text><text x="266" y="178" font-family="monospace" font-size="14" font-weight="bold" fill="#c9d1d9">Next.js</text><text x="266" y="189" font-family="monospace" font-size="6.5" fill="#8b949e">React / React Native</text></g>
<g opacity="1"><rect x="22" y="200" width="214" height="47" rx="7" fill="#161b22" stroke="#30363d"/><text x="34" y="213" font-family="monospace" font-size="6.5" letter-spacing="1" fill="#39d353">BACKEND</text><text x="34" y="231" font-family="monospace" font-size="14" font-weight="bold" fill="#c9d1d9">NestJS</text><text x="34" y="242" font-family="monospace" font-size="6.5" fill="#8b949e">Node.js / Express</text></g>
<g opacity="1"><rect x="254" y="200" width="214" height="47" rx="7" fill="#161b22" stroke="#30363d"/><text x="266" y="213" font-family="monospace" font-size="6.5" letter-spacing="1" fill="#39d353">DATA / CLOUD</text><text x="266" y="231" font-family="monospace" font-size="14" font-weight="bold" fill="#c9d1d9">Supabase</text><text x="266" y="242" font-family="monospace" font-size="6.5" fill="#8b949e">Firebase / MongoDB</text></g>
<text x="22" y="257" font-family="monospace" font-size="7.5" letter-spacing="1.3" fill="#39d353">CONTRIBUTION ACTIVITY</text>
<rect x="22.00" y="293.88" width="32.17" height="12.12" rx="2" fill="#39d353" opacity="1"></rect>
<text x="38.08" y="318" text-anchor="middle" font-family="monospace" font-size="6" fill="#8b949e">11</text>
<rect x="59.17" y="264.00" width="32.17" height="42.00" rx="2" fill="#39d353" opacity="1"></rect>
<text x="75.25" y="318" text-anchor="middle" font-family="monospace" font-size="6" fill="#8b949e">12</text>
<rect x="96.33" y="268.95" width="32.17" height="37.05" rx="2" fill="#39d353" opacity="1"></rect>
<text x="112.42" y="318" text-anchor="middle" font-family="monospace" font-size="6" fill="#8b949e">01</text>
<rect x="133.50" y="295.06" width="32.17" height="10.94" rx="2" fill="#39d353" opacity="1"></rect>
<text x="149.58" y="318" text-anchor="middle" font-family="monospace" font-size="6" fill="#8b949e">02</text>
<rect x="170.67" y="298.06" width="32.17" height="7.94" rx="2" fill="#39d353" opacity="1"></rect>
<text x="186.75" y="318" text-anchor="middle" font-family="monospace" font-size="6" fill="#8b949e">03</text>
<rect x="207.83" y="297.85" width="32.17" height="8.15" rx="2" fill="#39d353" opacity="1"></rect>
<text x="223.92" y="318" text-anchor="middle" font-family="monospace" font-size="6" fill="#8b949e">04</text>
<rect x="245.00" y="293.04" width="32.17" height="12.96" rx="2" fill="#39d353" opacity="1"></rect>
<text x="261.08" y="318" text-anchor="middle" font-family="monospace" font-size="6" fill="#8b949e">05</text>
<rect x="282.17" y="270.97" width="32.17" height="35.03" rx="2" fill="#39d353" opacity="1"></rect>
<text x="298.25" y="318" text-anchor="middle" font-family="monospace" font-size="6" fill="#8b949e">06</text>
<rect x="319.33" y="285.73" width="32.17" height="20.27" rx="2" fill="#39d353" opacity="1"></rect>
<text x="335.42" y="318" text-anchor="middle" font-family="monospace" font-size="6" fill="#8b949e">07</text>
<rect x="356.50" y="280.86" width="32.17" height="25.14" rx="2" fill="#39d353" opacity="1"></rect>
<text x="372.58" y="318" text-anchor="middle" font-family="monospace" font-size="6" fill="#8b949e">08</text>
<rect x="393.67" y="292.91" width="32.17" height="13.09" rx="2" fill="#39d353" opacity="1"></rect>
<text x="409.75" y="318" text-anchor="middle" font-family="monospace" font-size="6" fill="#8b949e">09</text>
<rect x="430.83" y="305.02" width="32.17" height="0.98" rx="2" fill="#39d353" opacity="1"></rect>
<text x="446.92" y="318" text-anchor="middle" font-family="monospace" font-size="6" fill="#8b949e">10</text>
<text x="22" y="337" font-family="monospace" font-size="7" fill="#8b949e">3,332 contributions · 280 active days · streak 2</text>
<line x1="22" y1="345" x2="468" y2="345" stroke="#30363d"/>
<text x="22" y="360" font-family="monospace" font-size="6.5" fill="#c9d1d9">✉ haseebarshad1712@gmail.com</text>
<text x="330" y="360" font-family="monospace" font-size="6.5" fill="#c9d1d9">☎ 3295339588</text>
</svg>